<?xml version="1.0" encoding="utf-8"?>
<!-- Generator: Adobe Illustrator 21.1.0, SVG Export Plug-In . SVG Version: 6.00 Build 0)  -->
<svg version="1.1" id="圖層_1" xmlns="http://www.w3.org/2000/svg" xmlns:xlink="http://www.w3.org/1999/xlink" x="0px" y="0px"
	 viewBox="0 0 48 48" style="enable-background:new 0 0 48 48;" xml:space="preserve">
<style type="text/css">
	.st0{fill:none;}
	.st1{fill:#FFFFFF;}
</style>
<rect class="st0" width="48" height="48"/>
<g>
	<path class="st1" d="M7.5,8.5v32l33,0v-32H7.5z M39.5,9.5v3h-31v-3H39.5z M8.5,39.5v-26h31v26L8.5,39.5z"/>
	<path class="st1" d="M38.5,10.5h-2v1h2V10.5z"/>
	<path class="st1" d="M35.5,10.5h-2v1h2V10.5z"/>
	<path class="st1" d="M32.5,10.5h-2v1h2V10.5z"/>
	<path class="st1" d="M33.1,20.2c-0.2-0.1-0.4-0.1-0.6-0.1c-0.2,0-0.4,0.1-0.6,0.2c-0.2,0.1-0.3,0.2-0.5,0.4
		c-0.1,0.1-0.2,0.3-0.3,0.5c-0.1,0.2-0.1,0.4-0.1,0.7L30,22.4l-5.5-2.8v-1.3c0.3-0.1,0.6-0.4,0.8-0.7c0.2-0.3,0.2-0.7,0.2-1
		c-0.1-0.3-0.2-0.7-0.5-0.9s-0.6-0.4-1-0.4c-0.4,0-0.7,0.1-1,0.4c-0.3,0.2-0.4,0.5-0.5,0.9c-0.1,0.3,0,0.7,0.2,1
		c0.2,0.3,0.5,0.5,0.8,0.7v1.3L18,22.4l-1.2-0.6c0-0.2,0-0.4-0.1-0.7c-0.1-0.2-0.2-0.4-0.3-0.5c-0.1-0.1-0.3-0.3-0.5-0.4
		c-0.2-0.1-0.5-0.2-0.7-0.2c-0.2,0-0.5,0.1-0.7,0.2c-0.2,0.1-0.4,0.3-0.5,0.5c-0.1,0.2-0.2,0.4-0.2,0.7c0,0.2,0,0.5,0.1,0.7
		c0.1,0.2,0.3,0.4,0.4,0.6c0.2,0.2,0.4,0.3,0.7,0.3c0.2,0,0.5,0,0.7-0.1c0.2-0.1,0.4-0.2,0.6-0.3l1.2,0.6v6.5l-1,1
		c-0.2-0.1-0.5-0.2-0.8-0.1c-0.3,0-0.5,0.1-0.7,0.3c-0.2,0.2-0.4,0.4-0.5,0.6c-0.1,0.3-0.1,0.5-0.1,0.8c0,0.3,0.2,0.5,0.4,0.7
		c0.2,0.2,0.4,0.4,0.7,0.4c0.3,0.1,0.5,0.1,0.8,0c0.3-0.1,0.5-0.2,0.7-0.4c0.2-0.2,0.4-0.5,0.4-0.8c0-0.3,0-0.6-0.1-0.9l0.9-0.9
		l5.4,2.7v1.3c-0.3,0.1-0.6,0.3-0.8,0.7c-0.2,0.3-0.2,0.7-0.2,1c0.1,0.3,0.2,0.7,0.5,0.9c0.3,0.2,0.6,0.4,1,0.4c0.4,0,0.7-0.1,1-0.4
		c0.3-0.2,0.4-0.5,0.5-0.9c0.1-0.3,0-0.7-0.2-1c-0.2-0.3-0.5-0.5-0.8-0.7v-1.3l5.4-2.7l0.9,0.9c-0.2,0.3-0.2,0.7-0.1,1
		c0.1,0.3,0.3,0.6,0.6,0.8c0.3,0.2,0.6,0.3,1,0.3s0.7-0.2,0.9-0.4c0.2-0.3,0.4-0.6,0.4-0.9s-0.1-0.7-0.3-1c-0.2-0.3-0.5-0.5-0.8-0.6
		c-0.3-0.1-0.7-0.1-1,0.1l-1-1v-6.5l1.2-0.6c0.2,0.2,0.3,0.3,0.6,0.3c0.2,0.1,0.4,0.1,0.6,0.1c0.2,0,0.4-0.1,0.6-0.2
		s0.3-0.2,0.5-0.4c0.1-0.1,0.2-0.3,0.3-0.5c0.1-0.2,0.1-0.4,0.1-0.6c0-0.2-0.1-0.4-0.2-0.6c-0.1-0.2-0.2-0.3-0.4-0.5
		C33.5,20.4,33.3,20.3,33.1,20.2L33.1,20.2z M26,24.4l-2-1l-2,1L19.1,23l4.9-2.4l4.9,2.4L26,24.4z M22.5,25.8l1,0.5v1.9l-1-0.5V25.8
		z M24.5,26.3l1-0.5v1.9l-1,0.5V26.3z M24,25.4L23.1,25l0.9-0.4l0.9,0.4L24,25.4z M18.5,23.8l3,1.5v3l2,1v2.9l-5-2.5V23.8z
		 M24.5,29.3l2-1v-3l3-1.5v5.9l-5,2.5V29.3z M24,16.5c0.1,0,0.3,0.1,0.4,0.1c0.1,0.1,0.1,0.2,0.1,0.4s-0.1,0.3-0.1,0.4
		c-0.1,0.1-0.2,0.1-0.4,0.1c-0.1,0-0.3-0.1-0.4-0.1c-0.1-0.1-0.1-0.2-0.1-0.4s0.1-0.3,0.1-0.4C23.7,16.6,23.9,16.5,24,16.5z
		 M15.1,22.1C15,22.1,15,22,14.9,22c0,0-0.1-0.1-0.1-0.2c0-0.1,0-0.1,0-0.2c0-0.1,0-0.1,0.1-0.2c0.1-0.1,0.2-0.2,0.3-0.2
		c0.1,0,0.3,0,0.4,0c0.1,0.1,0.2,0.2,0.2,0.3c0,0.1,0,0.3,0,0.4c-0.1,0.1-0.2,0.2-0.3,0.2S15.2,22.2,15.1,22.1L15.1,22.1z
		 M16.2,32.5c-0.1,0.1-0.2,0.1-0.3,0.1c-0.1,0-0.2,0-0.3,0c-0.1,0-0.2-0.1-0.2-0.2c-0.1-0.1-0.1-0.2-0.1-0.3s0-0.2,0.1-0.3
		c0.1-0.1,0.1-0.1,0.2-0.2c0.1,0,0.2,0,0.3,0c0.1,0,0.2,0.1,0.3,0.1c0,0,0.1,0.1,0.1,0.2s0,0.1,0,0.2c0,0.1,0,0.1,0,0.2
		C16.3,32.4,16.3,32.4,16.2,32.5L16.2,32.5z M24,36.5c-0.1,0-0.3-0.1-0.4-0.1c0,0-0.1-0.1-0.1-0.2c0-0.1,0-0.1,0-0.2
		c0-0.1,0.1-0.3,0.1-0.4c0.1-0.1,0.2-0.1,0.4-0.1c0.1,0,0.3,0.1,0.4,0.1c0.1,0.1,0.1,0.2,0.1,0.4s-0.1,0.3-0.1,0.4
		C24.3,36.4,24.1,36.5,24,36.5z M32.5,31.8c0.1,0.1,0.1,0.2,0.1,0.3c0,0.1,0,0.2-0.1,0.3c-0.1,0.1-0.2,0.2-0.3,0.2
		c-0.1,0-0.2,0-0.3,0c-0.1,0-0.2-0.1-0.3-0.2c-0.1-0.1-0.1-0.2-0.1-0.3c0-0.1,0.1-0.2,0.2-0.3c0.1-0.1,0.2-0.1,0.3-0.1
		C32.3,31.6,32.4,31.7,32.5,31.8L32.5,31.8z M33.2,21.8c0,0.1-0.1,0.1-0.1,0.2c0,0-0.1,0.1-0.2,0.1c-0.1,0-0.1,0-0.2,0.1
		c-0.1,0-0.1,0-0.2,0c-0.1,0-0.2-0.1-0.3-0.2c0-0.1-0.1-0.2-0.1-0.2c0-0.1,0-0.2,0.1-0.2c0-0.1,0.1-0.1,0.2-0.2
		c0.1,0,0.1-0.1,0.2-0.1c0.1,0,0.2,0,0.2,0c0.1,0,0.1,0.1,0.2,0.1c0.1,0.1,0.1,0.1,0.1,0.2C33.2,21.7,33.2,21.7,33.2,21.8L33.2,21.8
		z"/>
</g>
</svg>
