<?xml version="1.0" encoding="utf-8"?>
<!-- Generator: Adobe Illustrator 21.1.0, SVG Export Plug-In . SVG Version: 6.00 Build 0)  -->
<svg version="1.1" id="圖層_1" xmlns="http://www.w3.org/2000/svg" xmlns:xlink="http://www.w3.org/1999/xlink" x="0px" y="0px"
	 viewBox="0 0 48 48" style="enable-background:new 0 0 48 48;" xml:space="preserve">
<style type="text/css">
	.st0{fill:none;}
	.st1{fill:#FFFFFF;}
</style>
<rect class="st0" width="48" height="48"/>
<g>
	<path class="st1" d="M10.5,10.5v1h32v20h1v-21H10.5z"/>
	<path class="st1" d="M7.5,14.5h32v20h1v-21h-33V14.5z"/>
	<path class="st1" d="M4.5,37.5h33v-21h-33V37.5z M36.5,36.5h-31v-15h31V36.5z M5.5,17.5h31v3h-31V17.5z"/>
	<path class="st1" d="M35.5,18.5h-2v1h2V18.5z"/>
	<path class="st1" d="M32.5,18.5h-2v1h2V18.5z"/>
	<path class="st1" d="M29.5,18.5h-2v1h2V18.5z"/>
	<path class="st1" d="M15.7,33l-4-4l4-4h-1.4l-4,4l4,4H15.7z"/>
	<path class="st1" d="M27.7,33l4-4l-4-4h-1.4l4,4l-4,4H27.7z"/>
	<path class="st1" d="M24.4,23h-1.1l-6.8,12h1.1L24.4,23z"/>
</g>
</svg>
