<?xml version="1.0" encoding="utf-8"?>
<!-- Generator: Adobe Illustrator 21.1.0, SVG Export Plug-In . SVG Version: 6.00 Build 0)  -->
<svg version="1.1" id="圖層_1" xmlns="http://www.w3.org/2000/svg" xmlns:xlink="http://www.w3.org/1999/xlink" x="0px" y="0px"
	 viewBox="0 0 48 48" style="enable-background:new 0 0 48 48;" xml:space="preserve">
<style type="text/css">
	.st0{fill:none;}
	.st1{fill:#FFFFFF;}
</style>
<rect class="st0" width="48" height="48"/>
<g>
	<path class="st1" d="M4.5,37.5h31v-16h-31V37.5z M5.5,22.5h29v14h-1v-2h-1v2h-1v-2h-1v2h-1v-2h-1v2h-1v-2h-1v2h-1v-2h-1v2h-1v-2h-1
		v2h-1v-2h-1v2h-1v-2h-1v2h-1v-2h-1v2h-1v-2h-1v2h-1v-2h-1v2h-1v-2h-1v2h-1v-2h-1v2h-1v-2h-1v2h-1V22.5z M43.5,10.5v16h-7v-3h1v2h1
		v-2h1v2h1v-2h1v2h1v-14h-29v9h-1v-10H43.5z M12.5,24.5h-6v7h6V24.5z M11.5,30.5h-4v-5h4V30.5z M19.5,24.5h-6v7h6V24.5z M18.5,30.5
		h-4v-5h4V30.5z M26.5,24.5h-6v7h6V24.5z M25.5,30.5h-4v-5h4V30.5z M33.5,24.5h-6v7h6V24.5z M32.5,30.5h-4v-5h4V30.5z M14.5,13.5v7
		h6v-7H14.5z M19.5,19.5h-4v-5h4V19.5z M21.5,13.5v7h6v-7H21.5z M26.5,19.5h-4v-5h4V19.5z M28.5,13.5v7h6v-7H28.5z M33.5,19.5h-4v-5
		h4V19.5z M41.5,13.5h-6v7h6V13.5z M40.5,19.5h-4v-5h4V19.5z"/>
</g>
</svg>
