<?xml version="1.0" encoding="utf-8"?>
<!-- Generator: Adobe Illustrator 21.1.0, SVG Export Plug-In . SVG Version: 6.00 Build 0)  -->
<svg version="1.1" id="圖層_1" xmlns="http://www.w3.org/2000/svg" xmlns:xlink="http://www.w3.org/1999/xlink" x="0px" y="0px"
	 viewBox="0 0 48 48" style="enable-background:new 0 0 48 48;" xml:space="preserve">
<style type="text/css">
	.st0{fill:none;}
	.st1{fill:#FFFFFF;}
</style>
<rect class="st0" width="48" height="48"/>
<g>
	<rect class="st0" width="48" height="48"/>
	<g>
		<path class="st1" d="M29.9,7.5H7.5v33h33v-33H29.9z M38.5,18.6v10.8l1,0.3v9.8h-9.8l-0.3-1H18.6l-0.3,1H8.5v-9.8l1-0.3V18.6
			l-1-0.3V8.5h9.8l0.3,1h10.8l0.3-1h9.8v9.8L38.5,18.6z M12.5,12.5h2v2h-2V12.5z M15.5,12.5h2v2h-2V12.5z M18.5,12.5h2v2h-2V12.5z
			 M21.5,12.5h2v2h-2V12.5z M24.5,12.5h2v2h-2V12.5z M27.5,12.5h2v2h-2V12.5z M30.5,12.5h2v2h-2V12.5z M33.5,12.5h2v2h-2V12.5z
			 M12.5,15.5h2v2h-2V15.5z M15.5,15.5h2v2h-2V15.5z M18.5,15.5h2v2h-2V15.5z M21.5,15.5h2v2h-2V15.5z M24.5,15.5h2v2h-2V15.5z
			 M27.5,15.5h2v2h-2V15.5z M30.5,15.5h2v2h-2V15.5z M33.5,15.5h2v2h-2V15.5z M12.5,18.5h2v2h-2V18.5z M15.5,18.5h2v2h-2V18.5z
			 M18.5,18.5h2v2h-2V18.5z M21.5,18.5h2v2h-2V18.5z M24.5,18.5h2v2h-2V18.5z M27.5,18.5h2v2h-2V18.5z M30.5,18.5h2v2h-2V18.5z
			 M33.5,18.5h2v2h-2V18.5z M12.5,21.5h2v2h-2V21.5z M15.5,21.5h2v2h-2V21.5z M18.5,21.5h2v2h-2V21.5z M21.5,21.5h2v2h-2V21.5z
			 M24.5,21.5h2v2h-2V21.5z M27.5,21.5h2v2h-2V21.5z M30.5,21.5h2v2h-2V21.5z M33.5,21.5h2v2h-2V21.5z M12.5,24.5h2v2h-2V24.5z
			 M15.5,24.5h2v2h-2V24.5z M18.5,24.5h2v2h-2V24.5z M21.5,24.5h2v2h-2V24.5z M24.5,24.5h2v2h-2V24.5z M27.5,24.5h2v2h-2V24.5z
			 M30.5,24.5h2v2h-2V24.5z M33.5,24.5h2v2h-2V24.5z M12.5,27.5h2v2h-2V27.5z M15.5,27.5h2v2h-2V27.5z M18.5,27.5h2v2h-2V27.5z
			 M21.5,27.5h2v2h-2V27.5z M24.5,27.5h2v2h-2V27.5z M27.5,27.5h2v2h-2V27.5z M30.5,27.5h2v2h-2V27.5z M33.5,27.5h2v2h-2V27.5z
			 M12.5,30.5h2v2h-2V30.5z M15.5,30.5h2v2h-2V30.5z M18.5,30.5h2v2h-2V30.5z M21.5,30.5h2v2h-2V30.5z M24.5,30.5h2v2h-2V30.5z
			 M27.5,30.5h2v2h-2V30.5z M30.5,30.5h2v2h-2V30.5z M33.5,30.5h2v2h-2V30.5z M12.5,33.5h2v2h-2V33.5z M15.5,33.5h2v2h-2V33.5z
			 M18.5,33.5h2v2h-2V33.5z M21.5,33.5h2v2h-2V33.5z M24.5,33.5h2v2h-2V33.5z M27.5,33.5h2v2h-2V33.5z M30.5,33.5h2v2h-2V33.5z
			 M33.5,33.5h2v2h-2V33.5z"/>
	</g>
</g>
</svg>
