<?xml version="1.0" encoding="utf-8"?>
<!-- Generator: Adobe Illustrator 21.1.0, SVG Export Plug-In . SVG Version: 6.00 Build 0)  -->
<svg version="1.1" id="圖層_1" xmlns="http://www.w3.org/2000/svg" xmlns:xlink="http://www.w3.org/1999/xlink" x="0px" y="0px"
	 viewBox="0 0 48 48" style="enable-background:new 0 0 48 48;" xml:space="preserve">
<style type="text/css">
	.st0{fill:none;}
	.st1{fill:#FFFFFF;}
</style>
<rect class="st0" width="48" height="48"/>
<g>
	<path class="st1" d="M7.5,7.5v33h33v-33H7.5z M38.5,18.6v10.8l1,0.3v9.8h-9.8l-0.3-1H18.6l-0.3,1H8.5v-9.8l1-0.3V18.6l-1-0.3V8.5
		h9.8l0.3,1h10.8l0.3-1h9.8v9.8L38.5,18.6z M17.5,15.5h-2v-2h2V15.5z M20.5,15.5h-2v-2h2V15.5z M17.5,18.5h-2v-2h2V18.5z M20.5,18.5
		h-2v-2h2V18.5z M29.5,15.5h-2v-2h2V15.5z M32.5,15.5h-2v-2h2V15.5z M29.5,18.5h-2v-2h2V18.5z M32.5,18.5h-2v-2h2V18.5z M17.5,23.5
		h-2v-2h2V23.5z M20.5,23.5h-2v-2h2V23.5z M17.5,26.5h-2v-2h2V26.5z M20.5,26.5h-2v-2h2V26.5z M29.5,23.5h-2v-2h2V23.5z M32.5,23.5
		h-2v-2h2V23.5z M29.5,26.5h-2v-2h2V26.5z M32.5,26.5h-2v-2h2V26.5z M33.5,28.5h-19v3h-1v3h3v-3h-1v-2h8v2h-1v3h3v-3h-1v-2h8v2h-1v3
		h3v-3h-1V28.5z M15.5,33.5h-1v-1h1V33.5z M24.5,33.5h-1v-1h1V33.5z M33.5,33.5h-1v-1h1V33.5z"/>
</g>
</svg>
