<?xml version="1.0" encoding="utf-8"?>
<!-- Generator: Adobe Illustrator 21.1.0, SVG Export Plug-In . SVG Version: 6.00 Build 0)  -->
<svg version="1.1" id="圖層_1" xmlns="http://www.w3.org/2000/svg" xmlns:xlink="http://www.w3.org/1999/xlink" x="0px" y="0px"
	 viewBox="0 0 48 48" style="enable-background:new 0 0 48 48;" xml:space="preserve">
<style type="text/css">
	.st0{fill:none;}
	.st1{fill:#FFFFFF;}
</style>
<rect class="st0" width="48" height="48"/>
<g>
	<path class="st1" d="M35.5,26.8l2,1.1V14.7l-15-8.6v2.5l-2.1-1.2l-1.9,1.1V6.1l-8,4.6v12.2l2-1.3v2.1l2.8,1.6L12,27.4l2.7,1.5
		L12,30.6l2.7,1.5L12,33.9l15.5,8.7l8.5-5.4l-2.6-1.6l2.6-1.7l-2.6-1.6l2.6-1.6l-2.6-1.6l2.2-1.3V26.8z M16.7,10.7l2.7,1.5l-2.7,1.5
		L14,12.3L16.7,10.7z M26.7,12.3l-2.8,1.5l-2.6-1.5l2.8-1.5L26.7,12.3z M16.1,14.7v2.5l-2.6-1.5v-2.5L16.1,14.7z M19.7,16.7v2.5
		l-2.6-1.5v-2.5L19.7,16.7z M27.3,21.1v2.6l-2.7-1.6v-2.5L27.3,21.1z M27.8,20.2l-2.6-1.5l2.6-1.5l2.7,1.5L27.8,20.2z M24.2,18.1
		l-2.9-1.7l2.7-1.5l2.9,1.7L24.2,18.1z M23.6,19v2.5l-2.9-1.7v-2.5L23.6,19z M19.7,20.4v2.4l-2.6-1.5v-2.4
		C17.1,18.9,19.7,20.4,19.7,20.4z M20.7,21l2.9,1.7v2.4l-2.9-1.7C20.7,23.4,20.7,21,20.7,21z M24.6,23.2l2.7,1.6v2.5l-2.7-1.6V23.2z
		 M28.3,21l2.7-1.4l0,2.4l-2.7,1.5V21z M31.9,19.1l2.6-1.4v2.4l-2.6,1.4L31.9,19.1z M31.5,18.2l-2.7-1.6l2.7-1.6l2.8,1.6
		C34.3,16.7,31.5,18.2,31.5,18.2z M27.8,16l-2.8-1.7l2.8-1.5l2.8,1.6L27.8,16z M22.9,14.4l-2.7,1.5l-2.6-1.5l2.7-1.5L22.9,14.4z
		 M13.5,16.8l2.6,1.5v2.4l-2.6-1.5V16.8z M19.7,24v2.8l-2.6-1.5v-2.8L19.7,24z M20.7,24.6l2.9,1.7V29l-2.9-1.7V24.6z M24.6,26.8
		l2.7,1.6v2.7l-2.7-1.6V26.8z M28.3,28.4l2.7-1.5l0,2.6l-2.7,1.7V28.4z M28.3,27.2v-2.6l2.7-1.5l0,2.6L28.3,27.2z M32,22.6l2.5-1.4
		v2.5L32,25.2L32,22.6z M23.5,7.9l13,7.4v10.9l-1-0.5v-9.3l-12-7V7.9z M23.1,10.2l-2.8,1.5l-2.7-1.6l2.7-1.6L23.1,10.2z M11.5,21.1
		v-9.8l6-3.4v1.3l-5,2.9v8.4L11.5,21.1z M13.5,20.3l2.6,1.5v2.8l-2.6-1.5V20.3z M34,37.2l-6.6,4.2L14,33.8l1.8-1.1l11.8,6.6l4.9-3.1
		L34,37.2z M34,34l-6.6,4.2L14,30.5l1.7-1.1l11.8,6.7l4.9-3.1L34,34z M34,30.8L27.5,35L14,27.3l2.3-1.5l11.6,6.7l4.6-2.8L34,30.8z
		 M32,28.8l0-2.5l2.5-1.4v2.4L32,28.8z"/>
</g>
</svg>
