<svg viewBox="0 0 48 48" fill="none" xmlns="http://www.w3.org/2000/svg" style="color: white;">
<g clip-path="url(#clip0_141_2075)">
<path d="M24.0001 21.5C21.9234 21.5 19.8933 22.1158 18.1666 23.2696C16.4399 24.4234 15.094 26.0632 14.2993 27.9819C13.5046 29.9005 13.2967 32.0117 13.7018 34.0485C14.107 36.0853 15.107 37.9562 16.5754 39.4247C18.0439 40.8931 19.9148 41.8931 21.9516 42.2983C23.9884 42.7034 26.0996 42.4955 28.0182 41.7008C29.9369 40.906 31.5767 39.5602 32.7305 37.8335C33.8842 36.1068 34.5001 34.0767 34.5001 32C34.4969 29.2162 33.3896 26.5474 31.4212 24.5789C29.4527 22.6105 26.7839 21.5032 24.0001 21.5ZM24.0001 22.5C26.1654 22.4977 28.2659 23.239 29.9501 24.6C30.1942 25.076 30.3985 25.5714 30.5611 26.081L32.1171 27.081C32.3591 27.4718 32.572 27.8799 32.7541 28.302L30.7811 27.029C30.8668 27.4581 30.9236 27.8924 30.9511 28.329L33.2351 29.803C33.3072 30.1063 33.3639 30.413 33.4051 30.722L30.9911 29.164C30.9843 29.5437 30.9556 29.9227 30.9051 30.299L33.5001 31.981V32C33.5001 32.259 33.4821 32.513 33.4611 32.767L30.7901 31.043C30.718 31.3863 30.6275 31.7255 30.5191 32.059L33.3191 33.859C33.2721 34.096 33.2091 34.327 33.1451 34.559L30.2841 32.713C30.1598 33.0262 30.0193 33.3326 29.8631 33.631L32.8151 35.531C32.7291 35.744 32.6321 35.952 32.5311 36.158L29.5211 34.216C29.3467 34.5003 29.1581 34.7757 28.9561 35.041L32.0441 37.033C31.9221 37.226 31.7951 37.413 31.6601 37.596L28.5241 35.573C28.2994 35.8284 28.0624 36.072 27.8131 36.304L31.0231 38.375C30.8671 38.546 30.7071 38.713 30.5391 38.875L27.2831 36.775C27.0035 36.9995 26.712 37.2088 26.4101 37.402L29.7421 39.551C29.5471 39.699 29.3491 39.842 29.1421 39.975L25.7581 37.8C25.4091 37.9868 25.0491 38.1521 24.6801 38.295L28.1521 40.534C27.9081 40.654 27.6591 40.764 27.4031 40.862L23.8681 38.581C23.4157 38.7134 22.9545 38.8136 22.4881 38.881L26.1561 41.248C25.8316 41.3236 25.5035 41.3823 25.1731 41.424L21.3921 38.984C21.2611 38.989 21.1321 39.004 21.0001 39.004C20.4452 39.0004 19.8916 38.9502 19.3451 38.854L23.4061 41.474C22.8549 41.4403 22.3079 41.3583 21.7711 41.229L17.0001 38.149C16.8681 38.091 16.7411 38.025 16.6111 37.963C15.4821 36.5692 14.7713 34.8839 14.561 33.1026C14.3507 31.3212 14.6496 29.5168 15.4229 27.8984C16.1963 26.2799 17.4125 24.9138 18.9305 23.9584C20.4486 23.0029 22.2064 22.4973 24.0001 22.5ZM42.7071 9.00003L38.0001 4.29303L34.2931 8.00003L35.1561 8.86303L33.1561 9.86303L37.1371 13.844L38.1371 11.844L39.0001 12.707L42.7071 9.00003ZM38.0001 5.70703L41.2931 9.00003L39.0001 11.293L35.7071 8.00003L38.0001 5.70703ZM36.8631 12.156L34.8441 10.137L35.9001 9.60803L37.3921 11.1L36.8631 12.156ZM31.5001 12.5H34.5001V15.5H33.5001V14.207L27.0311 20.676L14.3001 10.064L14.9401 9.29603L26.9691 19.324L32.7931 13.5H31.5001V12.5ZM31.5001 17.5H34.5001V20.5H33.5001V19.207L31.0001 21.707L30.2931 21L32.7931 18.5H31.5001V17.5ZM9.00006 4.50003C8.20617 4.49831 7.43539 4.76716 6.81479 5.26225C6.19419 5.75734 5.76081 6.44912 5.5861 7.22355C5.41139 7.99797 5.50578 8.80882 5.85371 9.52241C6.20163 10.236 6.78233 10.8097 7.50006 11.149V13.5H8.50006V14H9.50006V13.5H10.5001V11.149C11.2178 10.8097 11.7985 10.236 12.1464 9.52241C12.4943 8.80882 12.5887 7.99797 12.414 7.22355C12.2393 6.44912 11.8059 5.75734 11.1853 5.26225C10.5647 4.76716 9.79394 4.49831 9.00006 4.50003ZM9.50006 11.5V12.5H8.50006V11.5H9.50006ZM9.90006 10.327L10.6761 8.77603L9.78106 8.32903L9.00006 9.88203L8.22406 8.32903L7.32906 8.77603L8.10006 10.327C7.55468 10.1179 7.09973 9.72446 6.81418 9.21492C6.52863 8.70539 6.4305 8.11195 6.53683 7.53762C6.64316 6.96329 6.94723 6.44431 7.39627 6.07078C7.84531 5.69724 8.41096 5.49273 8.99506 5.49273C9.57915 5.49273 10.1448 5.69724 10.5938 6.07078C11.0429 6.44431 11.347 6.96329 11.4533 7.53762C11.5596 8.11195 11.4615 8.70539 11.1759 9.21492C10.8904 9.72446 10.4354 10.1179 9.89006 10.327H9.90006Z" fill="currentColor"/>
</g>
<defs>
<clipPath id="clip0_141_2075">
<rect width="48" height="48" fill="currentColor"/>
</clipPath>
</defs>
</svg>